<svg width="16" height="16" viewBox="0 0 16 16" fill="none" xmlns="http://www.w3.org/2000/svg">
<path d="M7.33333 13.6667C7.33333 13.9319 7.43869 14.1862 7.62623 14.3738C7.81376 14.5613 8.06812 14.6667 8.33333 14.6667C8.59855 14.6667 8.8529 14.5613 9.04044 14.3738C9.22798 14.1862 9.33333 13.9319 9.33333 13.6667V9.33333H13.6667C13.9319 9.33333 14.1862 9.22798 14.3738 9.04044C14.5613 8.8529 14.6667 8.59855 14.6667 8.33333C14.6667 8.06812 14.5613 7.81376 14.3738 7.62623C14.1862 7.43869 13.9319 7.33333 13.6667 7.33333H9.33333V3C9.33333 2.73478 9.22798 2.48043 9.04044 2.29289C8.8529 2.10536 8.59855 2 8.33333 2C8.06812 2 7.81376 2.10536 7.62623 2.29289C7.43869 2.48043 7.33333 2.73478 7.33333 3V7.33333H3C2.73478 7.33333 2.48043 7.43869 2.29289 7.62623C2.10536 7.81376 2 8.06812 2 8.33333C2 8.59855 2.10536 8.8529 2.29289 9.04044C2.48043 9.22798 2.73478 9.33333 3 9.33333H7.33333V13.6667Z" fill="#FF5700"/>
</svg>
