<svg width="25" height="20" viewBox="0 0 25 20" fill="none" xmlns="http://www.w3.org/2000/svg">
<path d="M10 0H22.5C23.8875 0 25 1.1125 25 2.5V5H20.7375L17.5 8.2375V13.2375L15 15.7375V20H10V15.7375L7.5 13.2375V6.7625L10 4.2625V0ZM20 9.2625V12.5H25V7.5H21.7625L20 9.2625ZM5.7375 5L7.5 3.2375V0H2.5C1.1125 0 0 1.1125 0 2.5V5H5.7375ZM5 12.5V7.5H0V12.5H5ZM7.5 16.7625L5.7375 15H0V17.5C0 18.8875 1.1125 20 2.5 20H7.5V16.7625ZM19.2625 15L17.5 16.7625V20H22.5C23.8875 20 25 18.8875 25 17.5V15H19.2625Z" fill="#FAFBFF" fill-opacity="0.66"/>
</svg>
