<svg width="21" height="16" viewBox="0 0 21 16" fill="none" xmlns="http://www.w3.org/2000/svg">
<path d="M0.5 0.5H20.5V15.5H0.5V0.5Z" fill="#E8EAF6"/>
<path d="M13.5 13H14.9L12.4 10.5L11 11.9L13.5 14.4V13ZM7.5 13H6.1L8.6 10.5L10 11.9L7.5 14.4V13Z" fill="#084EB1"/>
<path d="M4 3.5H17V5.5H4V3.5ZM10.5 7.5C9.1 7.5 8 8.6 8 10C8 11.4 9.1 12.5 10.5 12.5C11.9 12.5 13 11.4 13 10C13 8.6 11.9 7.5 10.5 7.5ZM10.5 11.5C9.65 11.5 9 10.85 9 10C9 9.15 9.65 8.5 10.5 8.5C11.35 8.5 12 9.15 12 10C12 10.85 11.35 11.5 10.5 11.5Z" fill="#1677FF"/>
<path d="M0 0V16H21V0H0ZM20 13.5C19.15 13.5 18.5 14.15 18.5 15H2.5C2.5 14.15 1.85 13.5 1 13.5V2.5C1.85 2.5 2.5 1.85 2.5 1H18.5C18.5 1.85 19.15 2.5 20 2.5V13.5Z" fill="#1677FF"/>
</svg>
