<svg width="24" height="24" viewBox="0 0 24 24" fill="none" xmlns="http://www.w3.org/2000/svg">
<path d="M0.857143 21.4286V2.57143C0.857143 2.11678 1.03776 1.68074 1.35925 1.35925C1.68074 1.03776 2.11677 0.857147 2.57143 0.857147H21.4286C21.8832 0.857147 22.3193 1.03776 22.6408 1.35925C22.9622 1.68074 23.1429 2.11678 23.1429 2.57143V21.4286C23.1429 21.8832 22.9622 22.3193 22.6408 22.6408C22.3193 22.9622 21.8832 23.1429 21.4286 23.1429H16.2857V15.0171H17.5029C17.7802 15.0171 18.0462 14.907 18.2423 14.7109C18.4384 14.5148 18.5486 14.2488 18.5486 13.9714V12.6514C18.5486 12.3741 18.4384 12.1081 18.2423 11.912C18.0462 11.7159 17.7802 11.6057 17.5029 11.6057H16.3543V9.99429C16.3543 8.55429 17.0057 8.55429 17.6571 8.55429H18.4971C18.6351 8.55997 18.7726 8.53528 18.9 8.48196C19.0274 8.42864 19.1415 8.34799 19.2343 8.24572C19.3339 8.15088 19.4128 8.03639 19.4659 7.90951C19.519 7.78263 19.5452 7.64611 19.5429 7.50858V6.24C19.5474 6.10041 19.5245 5.96128 19.4752 5.83058C19.426 5.69987 19.3515 5.58015 19.256 5.47825C19.1604 5.37636 19.0458 5.29429 18.9185 5.23674C18.7912 5.17919 18.6539 5.14729 18.5143 5.14286H16.5429C15.9676 5.12124 15.3946 5.22474 14.8632 5.44622C14.3319 5.6677 13.855 6.00187 13.4654 6.42567C13.0759 6.84946 12.7829 7.35277 12.6069 7.90082C12.4308 8.44888 12.3758 9.02862 12.4457 9.6V11.6057H11.3486C11.2098 11.6034 11.072 11.6288 10.9431 11.6803C10.8143 11.7319 10.697 11.8085 10.598 11.9059C10.4991 12.0032 10.4205 12.1193 10.3669 12.2473C10.3133 12.3753 10.2857 12.5127 10.2857 12.6514V13.9714C10.2857 14.1102 10.3133 14.2476 10.3669 14.3756C10.4205 14.5036 10.4991 14.6197 10.598 14.717C10.697 14.8143 10.8143 14.891 10.9431 14.9425C11.072 14.9941 11.2098 15.0194 11.3486 15.0171H12.4457V23.1429H2.57143C2.11677 23.1429 1.68074 22.9622 1.35925 22.6408C1.03776 22.3193 0.857143 21.8832 0.857143 21.4286Z" stroke="white" stroke-width="1.71429" stroke-linecap="round" stroke-linejoin="round"/>
</svg>
