<svg width="24" height="24" viewBox="0 0 24 24" fill="none" xmlns="http://www.w3.org/2000/svg">
<path d="M16 12C16 11.0746 15.6791 10.1779 15.092 9.46253C14.5049 8.74721 13.688 8.25756 12.7804 8.07701C11.8728 7.89647 10.9307 8.0362 10.1145 8.4724C9.2984 8.9086 8.65875 9.61427 8.30457 10.4692C7.95039 11.3241 7.90359 12.2754 8.17215 13.161C8.4407 14.0465 9.008 14.8116 9.77737 15.3258C10.5468 15.84 11.4706 16.0715 12.3916 15.9809C13.3125 15.8903 14.1736 15.4833 14.828 14.829C15.1996 14.47 15.4949 14.0398 15.6963 13.564C15.8977 13.0882 16.001 12.5767 16 12.06L15.999 11.997L16 12ZM18.16 12C18.1552 13.4185 17.659 14.7914 16.7559 15.8852C15.8528 16.9791 14.5986 17.7262 13.2067 17.9994C11.8148 18.2726 10.3712 18.055 9.12164 17.3837C7.87208 16.7124 6.89373 15.6289 6.35311 14.3175C5.81248 13.0061 5.74298 11.5479 6.15644 10.191C6.56989 8.83413 7.44075 7.66245 8.62081 6.87537C9.80087 6.08828 11.2172 5.73442 12.6288 5.87402C14.0404 6.01361 15.36 6.63803 16.363 7.641C16.9327 8.19365 17.3855 8.85521 17.6943 9.58636C18.0032 10.3175 18.1619 11.1033 18.161 11.897L18.16 12.006V12ZM19.847 5.594V5.596C19.8471 5.92916 19.7317 6.25205 19.5204 6.50965C19.3091 6.76725 19.0151 6.94362 18.6884 7.00871C18.3616 7.07381 18.0224 7.0236 17.7286 6.86663C17.4347 6.70967 17.2043 6.45566 17.0768 6.1479C16.9492 5.84014 16.9323 5.49766 17.0289 5.17882C17.1255 4.85999 17.3297 4.58452 17.6067 4.39935C17.8836 4.21419 18.2162 4.13079 18.5478 4.16337C18.8794 4.19594 19.1894 4.34248 19.425 4.578C19.681 4.829 19.84 5.179 19.84 5.566V5.595L19.847 5.594ZM12.007 2.154L10.812 2.146C10.088 2.14067 9.53834 2.14067 9.163 2.146C8.78767 2.15133 8.285 2.167 7.655 2.193C7.07 2.213 6.515 2.271 5.972 2.363L6.045 2.353C5.62 2.423 5.243 2.523 4.882 2.656L4.925 2.642C4.41509 2.84716 3.95139 3.15228 3.5612 3.53938C3.17101 3.92648 2.86221 4.38774 2.653 4.896L2.643 4.923C2.51479 5.27436 2.41971 5.63694 2.359 6.006L2.354 6.043C2.26578 6.56855 2.21266 7.09939 2.195 7.632L2.194 7.653C2.168 8.28367 2.15234 8.78633 2.147 9.161C2.14167 9.53567 2.14167 10.0853 2.147 10.81C2.15234 11.5347 2.155 11.933 2.155 12.005C2.155 12.077 2.15234 12.4753 2.147 13.2C2.14167 13.9247 2.14167 14.4743 2.147 14.849C2.15234 15.2237 2.168 15.7263 2.194 16.357C2.214 16.942 2.272 17.497 2.364 18.04L2.354 17.967C2.424 18.392 2.524 18.769 2.657 19.13L2.643 19.087C2.84816 19.5969 3.15328 20.0606 3.54038 20.4508C3.92748 20.841 4.38874 21.1498 4.897 21.359L4.924 21.369C5.242 21.488 5.619 21.588 6.007 21.653L6.044 21.658C6.513 21.74 7.068 21.798 7.632 21.817L7.653 21.818C8.28367 21.844 8.78634 21.8597 9.161 21.865C9.53567 21.8703 10.0853 21.8703 10.81 21.865L11.998 21.841L13.193 21.849C13.917 21.8543 14.4667 21.8543 14.842 21.849C15.2173 21.8437 15.72 21.828 16.35 21.802C16.935 21.782 17.49 21.724 18.033 21.632L17.96 21.642C18.385 21.572 18.762 21.472 19.123 21.339L19.08 21.353C19.5899 21.1478 20.0536 20.8427 20.4438 20.4556C20.834 20.0685 21.1428 19.6073 21.352 19.099L21.362 19.072C21.481 18.754 21.581 18.377 21.646 17.989L21.651 17.952C21.733 17.483 21.791 16.928 21.81 16.364L21.811 16.343C21.837 15.7123 21.8527 15.2097 21.858 14.835C21.8633 14.4603 21.8633 13.9107 21.858 13.186C21.8527 12.4613 21.85 12.063 21.85 11.991C21.85 11.919 21.8527 11.5207 21.858 10.796C21.8633 10.0713 21.8633 9.52167 21.858 9.147C21.8527 8.77233 21.837 8.26967 21.811 7.639C21.791 7.054 21.733 6.499 21.641 5.956L21.651 6.029C21.5873 5.63256 21.4858 5.24313 21.348 4.866L21.362 4.909C21.1568 4.39909 20.8517 3.93539 20.4646 3.5452C20.0775 3.155 19.6163 2.84621 19.108 2.637L19.081 2.627C18.7296 2.49879 18.3671 2.40371 17.998 2.343L17.961 2.338C17.4358 2.24982 16.9053 2.1967 16.373 2.179L16.352 2.178C15.7213 2.152 15.2187 2.13633 14.844 2.131C14.4693 2.12567 13.9197 2.12567 13.195 2.131L12.007 2.154ZM24 12C24 14.3853 23.9733 16.0363 23.92 16.953C23.9673 17.882 23.8188 18.8105 23.4843 19.6785C23.1498 20.5464 22.6366 21.3344 21.978 21.9913C21.3195 22.6483 20.5303 23.1595 19.6615 23.4919C18.7928 23.8244 17.8639 23.9705 16.935 23.921L16.951 23.922C16.0343 23.9753 14.3833 24.002 11.998 24.002C9.61267 24.002 7.96167 23.9753 7.045 23.922C6.11602 23.9693 5.18747 23.8208 4.31953 23.4863C3.45158 23.1518 2.66361 22.6386 2.00668 21.98C1.34974 21.3215 0.838494 20.5323 0.506073 19.6635C0.173651 18.7948 0.0274701 17.8659 0.0770022 16.937L0.0760022 16.953C0.0226689 16.0363 -0.0039978 14.3853 -0.0039978 12C-0.0039978 9.61467 0.0226689 7.96367 0.0760022 7.047C0.0287336 6.11802 0.177178 5.18947 0.511715 4.32153C0.846253 3.45358 1.35942 2.66561 2.01796 2.00867C2.6765 1.35174 3.46572 0.840493 4.33447 0.508071C5.20323 0.17565 6.13214 0.029469 7.061 0.0790011L7.045 0.0780011C7.96167 0.0246678 9.61267 -0.0019989 11.998 -0.0019989C14.3833 -0.0019989 16.0343 0.0246678 16.951 0.0780011C17.88 0.0307325 18.8085 0.179177 19.6765 0.513714C20.5444 0.848251 21.3324 1.36142 21.9893 2.01996C22.6463 2.6785 23.1575 3.46772 23.4899 4.33647C23.8224 5.20523 23.9685 6.13414 23.919 7.063L23.92 7.047C23.9733 7.963 24 9.614 24 12Z" fill="white"/>
</svg>
