<svg width="24" height="24" viewBox="0 0 24 24" fill="none" xmlns="http://www.w3.org/2000/svg">
<path d="M23.3858 23.4945H18.5102C18.1653 23.4945 17.8866 23.2157 17.8866 22.8709V15.0189C17.8866 12.326 16.4976 12.326 16.0394 12.326C14.8063 12.326 14.2819 13.2992 14.1118 13.7197C14.0315 13.9087 13.9937 14.2299 13.9937 14.6788V22.8756C13.9937 23.2205 13.7149 23.4992 13.3701 23.4992H8.48977C8.32441 23.4992 8.16377 23.4331 8.04567 23.315C7.92757 23.1969 7.86143 23.0362 7.86614 22.8709C7.86614 22.7386 7.93228 9.57169 7.86614 8.22523C7.8567 8.05514 7.9181 7.88979 8.03623 7.76695C8.15435 7.64412 8.31497 7.57324 8.48974 7.57324H13.3701C13.7149 7.57324 13.9937 7.85196 13.9937 8.19684V8.56535C14.8157 7.83307 16.0016 7.22834 17.7685 7.22834C21.6756 7.22834 24.0094 9.93068 24.0094 14.4567V22.8709C24.0094 23.2157 23.7307 23.4945 23.3858 23.4945ZM19.1338 22.2473L22.7669 22.2472V14.4566C22.7669 10.6534 20.948 8.47552 17.7732 8.47552C15.652 8.47552 14.622 9.53379 13.9748 10.5023C13.8992 10.7574 13.6582 10.9464 13.3748 10.9464H13.3417C13.1149 10.9464 12.9071 10.8236 12.7984 10.6252C12.7134 10.4692 12.6945 10.2897 12.7512 10.1243V8.81571H9.12757C9.16064 11.4189 9.12757 19.8425 9.11812 22.2425H12.7465V14.674C12.7465 14.0456 12.8126 13.5921 12.9543 13.2472C13.5024 11.8913 14.6551 11.074 16.0346 11.074C18 11.074 19.1291 12.5103 19.1291 15.0142V22.2472H19.1339L19.1338 22.2473ZM5.79213 23.4944H0.911812C0.566929 23.4944 0.288211 23.2156 0.288211 22.8708V8.1968C0.288211 7.85191 0.566929 7.57317 0.911812 7.57317H5.79213C6.13702 7.57317 6.41573 7.85191 6.41573 8.19677V22.8708C6.41573 23.2157 6.13702 23.4944 5.79213 23.4944V23.4944ZM1.53546 22.2472H5.16851V8.82037H1.53548L1.53546 22.2472ZM3.35433 6.81724L3.32123 6.81722C1.3984 6.81722 -2.38419e-05 5.48494 -2.38419e-05 3.65187C-2.38419e-05 1.82353 1.42202 0.491226 3.38737 0.491226C5.31966 0.491226 6.69921 1.7857 6.73702 3.63769C6.73702 5.48494 5.31497 6.81724 3.35433 6.81724ZM3.38737 1.74321C2.10705 1.74321 1.24723 2.5133 1.24723 3.65662C1.24723 4.78102 2.09763 5.56999 3.32126 5.56999H3.3543C4.62991 5.56999 5.48974 4.79991 5.48974 3.6566C5.46612 2.49912 4.63936 1.74321 3.38737 1.74321Z" fill="white"/>
</svg>
