<svg width="20" height="15" viewBox="0 0 20 15" fill="none" xmlns="http://www.w3.org/2000/svg">
<path d="M18.693 12.3306C19.0505 10.9971 19.0965 9.59923 18.8273 8.24513C18.5581 6.89103 17.9809 5.61702 17.1406 4.52166C16.3002 3.4263 15.2191 2.53895 13.9809 1.92829C12.7427 1.31762 11.3806 1 10 1C8.6194 1 7.25731 1.31762 6.01911 1.92829C4.78092 2.53895 3.69981 3.4263 2.85943 4.52166C2.01905 5.61702 1.44194 6.89103 1.17274 8.24513C0.903549 9.59923 0.949485 10.9971 1.307 12.3306" stroke="#373B4D" stroke-width="2" stroke-linecap="round"/>
<path d="M10.766 10.5826C11.253 11.2926 10.91 12.3746 9.99998 12.9996C9.08998 13.6256 7.95698 13.5576 7.46998 12.8486C6.94998 12.0926 5.15598 7.84163 4.06698 5.21163C3.86198 4.71663 4.46698 4.30062 4.85698 4.66962C6.92098 6.62962 10.247 9.82662 10.766 10.5826Z" stroke="#373B4D" stroke-width="2"/>
<path d="M10 1.00061V3.00061M3.63601 3.63661L5.05001 5.05061M16.364 3.63661L14.95 5.05061M18.693 12.3306L16.762 11.8126M1.30701 12.3306L3.23801 11.8126" stroke="#373B4D" stroke-width="2" stroke-linecap="round"/>
</svg>
