<svg width="12" height="8" viewBox="0 0 12 8" fill="none" xmlns="http://www.w3.org/2000/svg">
<g clip-path="url(#clip0_47_2)">
<path d="M11.7626 1.85355L6.44327 7.37531C6.37995 7.44086 6.31135 7.48717 6.23746 7.51426C6.16359 7.54179 6.08443 7.55555 6 7.55555C5.91556 7.55555 5.83641 7.54179 5.76253 7.51426C5.68865 7.48717 5.62005 7.44086 5.55673 7.37532L0.221636 1.85355C0.0738786 1.70063 9.66857e-09 1.50947 0 1.28008C-9.66943e-09 1.05069 0.0791556 0.854069 0.237467 0.690218C0.395778 0.526367 0.580475 0.444443 0.791556 0.444443C1.00263 0.444443 1.18733 0.526367 1.34565 0.690218L6 5.50742L10.6544 0.690218C10.8021 0.537291 10.984 0.460827 11.2002 0.460827C11.4168 0.460827 11.6043 0.542752 11.7626 0.706603C11.9209 0.870453 12 1.06162 12 1.28008C12 1.49855 11.9209 1.6897 11.7626 1.85355Z" fill="#4E8F63"/>
</g>
<defs>
<clipPath id="clip0_47_2">
<rect width="12" height="8" fill="white"/>
</clipPath>
</defs>
</svg>
