<svg width="16" height="16" viewBox="0 0 16 16" fill="none" xmlns="http://www.w3.org/2000/svg">
<g clip-path="url(#clip0_48_5)">
<path d="M11.4 6.85C11.4911 6.75569 11.5415 6.62939 11.5403 6.4983C11.5392 6.3672 11.4866 6.24179 11.3939 6.14909C11.3012 6.05638 11.1758 6.0038 11.0447 6.00266C10.9136 6.00152 10.7873 6.05192 10.693 6.143L7.043 9.793L5.393 8.143C5.2987 8.05192 5.1724 8.00152 5.0413 8.00266C4.9102 8.0038 4.7848 8.05638 4.69209 8.14909C4.59939 8.24179 4.5468 8.3672 4.54567 8.4983C4.54453 8.62939 4.59492 8.75569 4.686 8.85L6.686 10.85C6.77977 10.9437 6.90692 10.9964 7.0395 10.9964C7.17208 10.9964 7.29924 10.9437 7.393 10.85L11.393 6.85H11.4Z" fill="white"/>
<path fill-rule="evenodd" clip-rule="evenodd" d="M8 0C3.58 0 0 3.58 0 8C0 12.42 3.58 16 8 16C12.42 16 16 12.42 16 8C16 3.58 12.42 0 8 0ZM1 8C1 4.13 4.13 1 8 1C11.87 1 15 4.13 15 8C15 11.87 11.87 15 8 15C4.13 15 1 11.87 1 8Z" fill="white"/>
</g>
<defs>
<clipPath id="clip0_48_5">
<rect width="16" height="16" fill="white"/>
</clipPath>
</defs>
</svg>
